# xmcd CD database file
#
# Track frame offsets:
#	150
#	22328
#	42429
#	57817
#
# Disc length: 1063 seconds
#
# Revision: 2
# Processed by: cddbd v1.5.2PL0 Copyright (c) Steve Scherf et al.
# Submitted via: CDex 1.60beta1-cs1
#
DISCID=32042504
DTITLE=アイドリング!!! - eve
DYEAR=2010
DGENRE=Pop
TTITLE0=eve
TTITLE1=StarGirl★StarBoy
TTITLE2=キャラメルラテ飲み行こー!
TTITLE3=eve (Instrumental)
EXTD=YEAR: 2010
EXTT0=
EXTT1=
EXTT2=
EXTT3=
PLAYORDER=
